<svg xmlns="http://www.w3.org/2000/svg" viewBox="0 0 1600 900" role="img" aria-label="Default VN stage background">
  <defs>
    <linearGradient id="sky" x1="0" y1="0" x2="0" y2="1">
      <stop offset="0" stop-color="#1d1730"/>
      <stop offset="0.52" stop-color="#0d1020"/>
      <stop offset="1" stop-color="#05060c"/>
    </linearGradient>
    <radialGradient id="windowGlow" cx="50%" cy="28%" r="48%">
      <stop offset="0" stop-color="#98dce8" stop-opacity="0.28"/>
      <stop offset="0.55" stop-color="#98dce8" stop-opacity="0.05"/>
      <stop offset="1" stop-color="#98dce8" stop-opacity="0"/>
    </radialGradient>
    <linearGradient id="floor" x1="0" y1="0" x2="0" y2="1">
      <stop offset="0" stop-color="#171222"/>
      <stop offset="1" stop-color="#06050b"/>
    </linearGradient>
  </defs>
  <rect width="1600" height="900" fill="url(#sky)"/>
  <rect width="1600" height="900" fill="url(#windowGlow)"/>
  <path d="M0 650H1600V900H0Z" fill="url(#floor)"/>
  <path d="M170 80H1430V650H170Z" fill="#11152a" opacity="0.72"/>
  <path d="M210 120H1390V610H210Z" fill="#080b16" opacity="0.78"/>
  <path d="M260 150H575V585H260Z" fill="#19243a"/>
  <path d="M642 150H958V585H642Z" fill="#172237"/>
  <path d="M1025 150H1340V585H1025Z" fill="#182238"/>
  <path d="M260 365H1340" stroke="#98dce8" stroke-opacity="0.12" stroke-width="6"/>
  <path d="M575 150V585M642 150V585M958 150V585M1025 150V585" stroke="#fff4e7" stroke-opacity="0.08" stroke-width="5"/>
  <path d="M0 650C330 610 520 622 800 650C1080 678 1290 610 1600 650V900H0Z" fill="#0a0710" opacity="0.58"/>
  <path d="M0 0H1600V900H0Z" fill="none" stroke="#fff4e7" stroke-opacity="0.08" stroke-width="18"/>
</svg>
